<svg width="88" height="36" viewBox="0 0 88 36" fill="none" xmlns="http://www.w3.org/2000/svg">
<circle cx="20.152" cy="18.152" r="12.152" fill="#3661EB"/>
<g filter="url(#filter0_d_29_10)">
<path d="M20.5922 13.2913C20.736 13.2913 20.8739 13.348 20.9756 13.449C21.0773 13.55 21.1344 13.687 21.1344 13.8299V15.9844C21.1344 16.1272 21.0773 16.2642 20.9756 16.3652C20.8739 16.4663 20.736 16.523 20.5922 16.523C20.4484 16.523 20.3105 16.4663 20.2089 16.3652C20.1072 16.2642 20.0501 16.1272 20.0501 15.9844V13.8299C20.0501 13.687 20.1072 13.55 20.2089 13.449C20.3105 13.348 20.4484 13.2913 20.5922 13.2913ZM16.3742 15.0256C16.4246 14.9755 16.4844 14.9357 16.5502 14.9085C16.6161 14.8814 16.6867 14.8674 16.758 14.8674C16.8294 14.8674 16.9 14.8814 16.9658 14.9085C17.0317 14.9357 17.0915 14.9755 17.1419 15.0256L18.6751 16.5499C18.7269 16.5996 18.7682 16.6591 18.7966 16.7248C18.8251 16.7905 18.84 16.8612 18.8406 16.9327C18.8413 17.0042 18.8275 17.0751 18.8003 17.1413C18.773 17.2075 18.7328 17.2676 18.6819 17.3182C18.631 17.3688 18.5704 17.4088 18.5038 17.4359C18.4372 17.463 18.3658 17.4766 18.2938 17.476C18.2218 17.4753 18.1507 17.4605 18.0845 17.4323C18.0184 17.404 17.9585 17.363 17.9085 17.3115L16.3753 15.7883C16.2736 15.6873 16.2165 15.5503 16.2165 15.4075C16.2165 15.2647 16.2736 15.1277 16.3753 15.0267L16.3742 15.0256ZM24.8103 15.0256C24.8608 15.0757 24.9008 15.1351 24.9282 15.2005C24.9555 15.266 24.9696 15.3361 24.9696 15.407C24.9696 15.4778 24.9555 15.548 24.9282 15.6134C24.9008 15.6788 24.8608 15.7383 24.8103 15.7883L23.2749 17.3115C23.2249 17.363 23.165 17.404 23.0989 17.4323C23.0327 17.4605 22.9616 17.4753 22.8896 17.476C22.8176 17.4766 22.7462 17.463 22.6796 17.4359C22.613 17.4088 22.5524 17.3688 22.5015 17.3182C22.4506 17.2676 22.4104 17.2075 22.3831 17.1413C22.3558 17.0751 22.3421 17.0042 22.3428 16.9327C22.3434 16.8612 22.3583 16.7905 22.3868 16.7248C22.4152 16.6591 22.4565 16.5996 22.5083 16.5499L24.0415 15.0267C24.1432 14.9257 24.281 14.869 24.4248 14.869C24.5686 14.869 24.7064 14.9257 24.8081 15.0267L24.8103 15.0256ZM14.6284 19.2161C14.6284 19.0733 14.6855 18.9363 14.7872 18.8353C14.8889 18.7342 15.0268 18.6775 15.1706 18.6775H17.3392C17.483 18.6775 17.6209 18.7342 17.7226 18.8353C17.8243 18.9363 17.8814 19.0733 17.8814 19.2161C17.8814 19.359 17.8243 19.496 17.7226 19.597C17.6209 19.698 17.483 19.7547 17.3392 19.7547H15.1706C15.0268 19.7547 14.8889 19.698 14.7872 19.597C14.6855 19.496 14.6284 19.359 14.6284 19.2161ZM20.5922 19.7892V29.7645C20.592 29.8712 20.6237 29.9755 20.6833 30.0643C20.7429 30.153 20.8276 30.2222 20.9268 30.2631C21.026 30.3039 21.1351 30.3146 21.2404 30.2937C21.3457 30.2728 21.4424 30.2214 21.5183 30.1459L24.2941 27.3881C24.7008 26.984 25.2523 26.757 25.8274 26.7569H29.3319C29.4445 26.7568 29.5542 26.7219 29.6459 26.6571C29.7376 26.5922 29.8067 26.5007 29.8437 26.395C29.8806 26.2894 29.8835 26.175 29.8521 26.0677C29.8206 25.9603 29.7563 25.8654 29.6681 25.7959L21.4705 19.3659C21.3906 19.3031 21.2944 19.264 21.1931 19.253C21.0918 19.242 20.9894 19.2597 20.8977 19.3039C20.806 19.3481 20.7288 19.417 20.6747 19.5029C20.6207 19.5887 20.5921 19.688 20.5922 19.7892Z" fill="white"/>
</g>
<path d="M38.9148 24.8838L44.0054 12.5108H45.4195L50.4747 24.8838H48.2829L44.3236 14.8617H45.066L41.0713 24.8838H38.9148ZM41.4248 22.4976V20.73H47.9824V22.4976H41.4248ZM51.9798 24.8838V12.1573H53.9241V24.8838H51.9798ZM56.1057 24.8838V16.3995H58.05V24.8838H56.1057ZM57.0778 14.844C56.7479 14.844 56.471 14.732 56.2471 14.5082C56.035 14.2843 55.9289 14.0073 55.9289 13.6774C55.9289 13.3475 56.035 13.0705 56.2471 12.8466C56.471 12.6228 56.7479 12.5108 57.0778 12.5108C57.4196 12.5108 57.6965 12.6228 57.9086 12.8466C58.1207 13.0705 58.2268 13.3475 58.2268 13.6774C58.2268 14.0073 58.1207 14.2843 57.9086 14.5082C57.6965 14.732 57.4196 14.844 57.0778 14.844ZM63.7659 28.5957C62.8703 28.5957 62.0867 28.4307 61.415 28.1008C60.7433 27.7826 60.2013 27.3289 59.7888 26.7397L61.0615 25.4671C61.4032 25.8913 61.7921 26.2095 62.2281 26.4216C62.6641 26.6337 63.1885 26.7397 63.8012 26.7397C64.5672 26.7397 65.174 26.5394 65.6218 26.1388C66.0696 25.7499 66.2935 25.2137 66.2935 24.5303V22.4445L66.6293 20.5709L66.2935 18.6796V16.3995H68.2378V24.5303C68.2378 25.3434 68.0493 26.0504 67.6722 26.6514C67.2951 27.2641 66.7707 27.7414 66.0991 28.0831C65.4274 28.4248 64.6497 28.5957 63.7659 28.5957ZM63.6775 24.707C62.9233 24.707 62.2399 24.5244 61.6271 24.1591C61.0261 23.782 60.5489 23.2694 60.1954 22.6213C59.8537 21.9732 59.6828 21.2485 59.6828 20.4472C59.6828 19.6459 59.8537 18.9271 60.1954 18.2908C60.5489 17.6544 61.0261 17.1536 61.6271 16.7883C62.2399 16.4112 62.9233 16.2227 63.6775 16.2227C64.3492 16.2227 64.9384 16.3582 65.4451 16.6292C65.9518 16.9003 66.3465 17.2773 66.6293 17.7605C66.9121 18.2318 67.0536 18.7857 67.0536 19.422V21.5077C67.0536 22.1323 66.9063 22.6861 66.6117 23.1692C66.3288 23.6524 65.9341 24.0295 65.4274 24.3005C64.9207 24.5715 64.3374 24.707 63.6775 24.707ZM64.0664 22.8688C64.5377 22.8688 64.9501 22.7686 65.3037 22.5683C65.6572 22.3679 65.9282 22.091 66.1167 21.7375C66.3171 21.3722 66.4172 20.948 66.4172 20.4649C66.4172 19.9817 66.3171 19.5634 66.1167 19.2099C65.9282 18.8446 65.6572 18.5618 65.3037 18.3615C64.9501 18.1611 64.5377 18.061 64.0664 18.061C63.595 18.061 63.1767 18.1611 62.8114 18.3615C62.4579 18.5618 62.181 18.8446 61.9806 19.2099C61.7803 19.5634 61.6801 19.9817 61.6801 20.4649C61.6801 20.9362 61.7803 21.3545 61.9806 21.7198C62.181 22.0851 62.4579 22.3679 62.8114 22.5683C63.1767 22.7686 63.595 22.8688 64.0664 22.8688ZM76.213 24.8838V19.9876C76.213 19.422 76.0304 18.9565 75.6651 18.5912C75.3116 18.2259 74.852 18.0433 74.2864 18.0433C73.9093 18.0433 73.5734 18.1258 73.2788 18.2908C72.9843 18.4557 72.7545 18.6855 72.5895 18.9801C72.4245 19.2747 72.342 19.6105 72.342 19.9876L71.582 19.5634C71.582 18.9153 71.7234 18.3438 72.0062 17.8489C72.289 17.3422 72.6779 16.9474 73.1728 16.6646C73.6795 16.37 74.2451 16.2227 74.8697 16.2227C75.506 16.2227 76.0716 16.3877 76.5665 16.7176C77.0614 17.0358 77.4503 17.4541 77.7331 17.9726C78.0159 18.4793 78.1573 19.0096 78.1573 19.5634V24.8838H76.213ZM70.3977 24.8838V16.3995H72.342V24.8838H70.3977Z" fill="white"/>
<defs>
<filter id="filter0_d_29_10" x="13.7446" y="13.2913" width="17.0128" height="18.7804" filterUnits="userSpaceOnUse" color-interpolation-filters="sRGB">
<feFlood flood-opacity="0" result="BackgroundImageFix"/>
<feColorMatrix in="SourceAlpha" type="matrix" values="0 0 0 0 0 0 0 0 0 0 0 0 0 0 0 0 0 0 127 0" result="hardAlpha"/>
<feOffset dy="0.883785"/>
<feGaussianBlur stdDeviation="0.441892"/>
<feComposite in2="hardAlpha" operator="out"/>
<feColorMatrix type="matrix" values="0 0 0 0 0 0 0 0 0 0 0 0 0 0 0 0 0 0 0.25 0"/>
<feBlend mode="normal" in2="BackgroundImageFix" result="effect1_dropShadow_29_10"/>
<feBlend mode="normal" in="SourceGraphic" in2="effect1_dropShadow_29_10" result="shape"/>
</filter>
</defs>
</svg>
