<svg width="125" height="52" viewBox="0 0 125 52" fill="none" xmlns="http://www.w3.org/2000/svg">
<circle cx="28.6249" cy="25.7844" r="17.2614" fill="#3661EB"/>
<g filter="url(#filter0_d_49_260)">
<path d="M29.2504 18.8794C29.4546 18.8794 29.6505 18.96 29.7949 19.1035C29.9394 19.247 30.0205 19.4416 30.0205 19.6445V22.7048C30.0205 22.9078 29.9394 23.1024 29.7949 23.2458C29.6505 23.3893 29.4546 23.4699 29.2504 23.4699C29.0461 23.4699 28.8503 23.3893 28.7058 23.2458C28.5614 23.1024 28.4803 22.9078 28.4803 22.7048V19.6445C28.4803 19.4416 28.5614 19.247 28.7058 19.1035C28.8503 18.96 29.0461 18.8794 29.2504 18.8794ZM23.2588 21.343C23.3304 21.2717 23.4154 21.2152 23.5089 21.1766C23.6025 21.1381 23.7028 21.1182 23.8041 21.1182C23.9054 21.1182 24.0057 21.1381 24.0993 21.1766C24.1928 21.2152 24.2778 21.2717 24.3493 21.343L26.5272 23.5082C26.6008 23.5788 26.6595 23.6632 26.6998 23.7565C26.7402 23.8499 26.7614 23.9503 26.7623 24.0519C26.7632 24.1535 26.7437 24.2542 26.705 24.3482C26.6663 24.4423 26.6091 24.5277 26.5368 24.5995C26.4645 24.6713 26.3785 24.7282 26.2838 24.7666C26.1892 24.8051 26.0878 24.8245 25.9855 24.8236C25.8833 24.8227 25.7822 24.8016 25.6883 24.7615C25.5943 24.7214 25.5093 24.6631 25.4383 24.59L23.2604 22.4264C23.116 22.2829 23.0349 22.0883 23.0349 21.8854C23.0349 21.6826 23.116 21.488 23.2604 21.3445L23.2588 21.343ZM35.2419 21.343C35.3137 21.4141 35.3706 21.4985 35.4094 21.5914C35.4482 21.6844 35.4682 21.784 35.4682 21.8847C35.4682 21.9853 35.4482 22.085 35.4094 22.1779C35.3706 22.2709 35.3137 22.3553 35.2419 22.4264L33.061 24.59C32.9899 24.6631 32.9049 24.7214 32.811 24.7615C32.717 24.8016 32.616 24.8227 32.5137 24.8236C32.4114 24.8245 32.31 24.8051 32.2154 24.7666C32.1207 24.7282 32.0348 24.6713 31.9625 24.5995C31.8901 24.5277 31.833 24.4423 31.7942 24.3482C31.7555 24.2542 31.736 24.1535 31.7369 24.0519C31.7378 23.9503 31.7591 23.8499 31.7994 23.7565C31.8398 23.6632 31.8984 23.5788 31.972 23.5082L34.1499 21.3445C34.2943 21.2011 34.4902 21.1205 34.6944 21.1205C34.8986 21.1205 35.0944 21.2011 35.2389 21.3445L35.2419 21.343ZM20.7791 27.2954C20.7791 27.0925 20.8602 26.8979 21.0046 26.7544C21.149 26.6109 21.3449 26.5303 21.5492 26.5303H24.6297C24.8339 26.5303 25.0298 26.6109 25.1742 26.7544C25.3186 26.8979 25.3998 27.0925 25.3998 27.2954C25.3998 27.4983 25.3186 27.6929 25.1742 27.8364C25.0298 27.9799 24.8339 28.0605 24.6297 28.0605H21.5492C21.3449 28.0605 21.149 27.9799 21.0046 27.8364C20.8602 27.6929 20.7791 27.4983 20.7791 27.2954ZM29.2504 28.1094V42.2789C29.2501 42.4304 29.2951 42.5786 29.3797 42.7047C29.4643 42.8308 29.5847 42.929 29.7256 42.9871C29.8665 43.0451 30.0216 43.0602 30.1711 43.0306C30.3207 43.001 30.458 42.9279 30.5658 42.8206L34.5088 38.9033C35.0863 38.3294 35.8698 38.0068 36.6867 38.0067H41.6647C41.8246 38.0065 41.9805 37.957 42.1107 37.8649C42.241 37.7728 42.3391 37.6427 42.3916 37.4927C42.4441 37.3427 42.4483 37.1802 42.4036 37.0277C42.3589 36.8752 42.2676 36.7403 42.1422 36.6417L30.498 27.5081C30.3844 27.4189 30.2478 27.3634 30.1039 27.3478C29.96 27.3322 29.8146 27.3572 29.6843 27.42C29.5541 27.4828 29.4443 27.5808 29.3675 27.7027C29.2908 27.8247 29.2502 27.9656 29.2504 28.1094Z" fill="white"/>
</g>
<path d="M55.2767 34.7783L62.5076 17.2031H64.5162L71.697 34.7783H68.5836L62.9596 20.5424H64.0141L58.3398 34.7783H55.2767ZM58.8419 31.3888V28.8781H68.1568V31.3888H58.8419ZM73.8348 34.7783V16.7009H76.5967V34.7783H73.8348ZM79.6955 34.7783V22.7267H82.4573V34.7783H79.6955ZM81.0764 20.5173C80.6077 20.5173 80.2144 20.3582 79.8963 20.0402C79.595 19.7222 79.4444 19.3288 79.4444 18.8602C79.4444 18.3915 79.595 17.9981 79.8963 17.6801C80.2144 17.3621 80.6077 17.2031 81.0764 17.2031C81.5618 17.2031 81.9552 17.3621 82.2564 17.6801C82.5577 17.9981 82.7084 18.3915 82.7084 18.8602C82.7084 19.3288 82.5577 19.7222 82.2564 20.0402C81.9552 20.3582 81.5618 20.5173 81.0764 20.5173ZM90.5764 40.0509C89.3043 40.0509 88.1912 39.8166 87.2371 39.3479C86.2831 38.896 85.5131 38.2515 84.9273 37.4146L86.735 35.6069C87.2204 36.2094 87.7728 36.6614 88.3921 36.9627C89.0114 37.264 89.7563 37.4146 90.6267 37.4146C91.7147 37.4146 92.5767 37.1301 93.2127 36.561C93.8488 36.0086 94.1668 35.247 94.1668 34.2762V31.3135L94.6439 28.6521L94.1668 25.9656V22.7267H96.9286V34.2762C96.9286 35.4311 96.6608 36.4354 96.1252 37.2891C95.5896 38.1595 94.8447 38.8374 93.8906 39.3228C92.9366 39.8082 91.8318 40.0509 90.5764 40.0509ZM90.4509 34.5272C89.3797 34.5272 88.4088 34.2678 87.5384 33.7489C86.6848 33.2133 86.0069 32.4852 85.5047 31.5646C85.0193 30.6439 84.7766 29.6145 84.7766 28.4763C84.7766 27.3381 85.0193 26.3171 85.5047 25.4132C86.0069 24.5093 86.6848 23.798 87.5384 23.2791C88.4088 22.7435 89.3797 22.4756 90.4509 22.4756C91.405 22.4756 92.2419 22.6681 92.9617 23.0531C93.6814 23.4381 94.2421 23.9737 94.6439 24.66C95.0456 25.3295 95.2464 26.1162 95.2464 27.0201V29.9828C95.2464 30.8699 95.0372 31.6566 94.6188 32.3429C94.217 33.0292 93.6563 33.5648 92.9366 33.9498C92.2168 34.3348 91.3883 34.5272 90.4509 34.5272ZM91.0033 31.9161C91.6728 31.9161 92.2586 31.7738 92.7608 31.4892C93.263 31.2047 93.6479 30.8113 93.9157 30.3092C94.2003 29.7903 94.3426 29.1877 94.3426 28.5014C94.3426 27.8152 94.2003 27.221 93.9157 26.7188C93.6479 26.1999 93.263 25.7982 92.7608 25.5136C92.2586 25.2291 91.6728 25.0868 91.0033 25.0868C90.3337 25.0868 89.7395 25.2291 89.2206 25.5136C88.7185 25.7982 88.3251 26.1999 88.0406 26.7188C87.756 27.221 87.6138 27.8152 87.6138 28.5014C87.6138 29.171 87.756 29.7652 88.0406 30.2841C88.3251 30.803 88.7185 31.2047 89.2206 31.4892C89.7395 31.7738 90.3337 31.9161 91.0033 31.9161ZM108.257 34.7783V27.8235C108.257 27.0201 107.998 26.3589 107.479 25.84C106.977 25.3212 106.324 25.0617 105.52 25.0617C104.985 25.0617 104.508 25.1789 104.089 25.4132C103.671 25.6476 103.344 25.974 103.11 26.3924C102.876 26.8109 102.758 27.2879 102.758 27.8235L101.679 27.221C101.679 26.3003 101.88 25.4885 102.281 24.7855C102.683 24.0658 103.236 23.505 103.939 23.1033C104.658 22.6849 105.462 22.4756 106.349 22.4756C107.253 22.4756 108.056 22.71 108.759 23.1786C109.462 23.6306 110.015 24.2248 110.416 24.9613C110.818 25.681 111.019 26.4343 111.019 27.221V34.7783H108.257ZM99.9967 34.7783V22.7267H102.758V34.7783H99.9967Z" fill="white"/>
<defs>
<filter id="filter0_d_49_260" x="19.5237" y="18.8794" width="24.166" height="26.6768" filterUnits="userSpaceOnUse" color-interpolation-filters="sRGB">
<feFlood flood-opacity="0" result="BackgroundImageFix"/>
<feColorMatrix in="SourceAlpha" type="matrix" values="0 0 0 0 0 0 0 0 0 0 0 0 0 0 0 0 0 0 127 0" result="hardAlpha"/>
<feOffset dy="1.25538"/>
<feGaussianBlur stdDeviation="0.627688"/>
<feComposite in2="hardAlpha" operator="out"/>
<feColorMatrix type="matrix" values="0 0 0 0 0 0 0 0 0 0 0 0 0 0 0 0 0 0 0.25 0"/>
<feBlend mode="normal" in2="BackgroundImageFix" result="effect1_dropShadow_49_260"/>
<feBlend mode="normal" in="SourceGraphic" in2="effect1_dropShadow_49_260" result="shape"/>
</filter>
</defs>
</svg>
